HIERARCHY
ROOT Hips
{
	OFFSET -14.64140 90.27770 -84.91600
	CHANNELS 6 Xposition Yposition Zposition Zrotation Xrotation Yrotation
	JOINT Spine
	{
		OFFSET 0.00000 13.20850 -1.60436
		CHANNELS 3 Zrotation Xrotation Yrotation
		JOINT Spine1
		{
			OFFSET 0.00000 8.61716 0.00000
			CHANNELS 3 Zrotation Xrotation Yrotation
			JOINT Spine2
			{
				OFFSET 0.00000 8.61717 0.00000
				CHANNELS 3 Zrotation Xrotation Yrotation
				JOINT Spine3
				{
					OFFSET 0.00000 8.61717 0.00000
					CHANNELS 3 Zrotation Xrotation Yrotation
					JOINT Neck
					{
						OFFSET 0.00000 11.07920 1.10792
						CHANNELS 3 Zrotation Xrotation Yrotation
						JOINT Neck1
						{
							OFFSET 0.00000 7.08032 0.00000
							CHANNELS 3 Zrotation Xrotation Yrotation
							JOINT Head
							{
								OFFSET 0.00000 7.08031 0.00000
								CHANNELS 3 Zrotation Xrotation Yrotation
								End site
								{
									OFFSET 0.00000 0.00000 0.00000
								}
							}
						}
					}
					JOINT RightShoulder
					{
						OFFSET -0.01000 7.91373 5.19711
						CHANNELS 3 Zrotation Xrotation Yrotation
						JOINT RightArm
						{
							OFFSET -18.41580 0.00000 0.00000
							CHANNELS 3 Zrotation Xrotation Yrotation
							JOINT RightForeArm
							{
								OFFSET -29.11090 0.00000 0.00000
								CHANNELS 3 Zrotation Xrotation Yrotation
								JOINT RightHand
								{
									OFFSET -24.65040 0.00000 0.00000
									CHANNELS 3 Zrotation Xrotation Yrotation
									JOINT RightHandThumb1
									{
										OFFSET -5.35114 -0.85590 3.97906
										CHANNELS 3 Zrotation Xrotation Yrotation
										JOINT RightHandThumb2
										{
											OFFSET -4.52789 0.00000 0.00000
											CHANNELS 3 Zrotation Xrotation Yrotation
											JOINT RightHandThumb3
											{
												OFFSET -2.46976 0.00000 0.00000
												CHANNELS 3 Zrotation Xrotation Yrotation
												End site
												{
													OFFSET 0.00000 0.00000 0.00000
												}
											}
										}
									}
									JOINT RightHandIndex1
									{
										OFFSET -14.26970 0.00000 2.88139
										CHANNELS 3 Zrotation Xrotation Yrotation
										JOINT RightHandIndex2
										{
											OFFSET -5.48836 0.00000 0.00000
											CHANNELS 3 Zrotation Xrotation Yrotation
											JOINT RightHandIndex3
											{
												OFFSET -3.01859 0.00000 0.00000
												CHANNELS 3 Zrotation Xrotation Yrotation
												End site
												{
													OFFSET 0.00000 0.00000 0.00000
												}
											}
										}
									}
									JOINT RightHandMiddle1
									{
										OFFSET -14.26970 0.00000 -0.09147
										CHANNELS 3 Zrotation Xrotation Yrotation
										JOINT RightHandMiddle2
										{
											OFFSET -6.17441 0.00000 0.00000
											CHANNELS 3 Zrotation Xrotation Yrotation
											JOINT RightHandMiddle3
											{
												OFFSET -3.56743 0.00000 0.00000
												CHANNELS 3 Zrotation Xrotation Yrotation
												End site
												{
													OFFSET 0.00000 0.00000 0.00000
												}
											}
										}
									}
									JOINT RightHandRing1
									{
										OFFSET -12.69180 0.00000 -3.06433
										CHANNELS 3 Zrotation Xrotation Yrotation
										JOINT RightHandRing2
										{
											OFFSET -5.62556 0.00000 0.00000
											CHANNELS 3 Zrotation Xrotation Yrotation
											JOINT RightHandRing3
											{
												OFFSET -3.56744 0.00000 0.00000
												CHANNELS 3 Zrotation Xrotation Yrotation
												End site
												{
													OFFSET 0.00000 0.00000 0.00000
												}
											}
										}
									}
									JOINT RightHandPinky1
									{
										OFFSET -11.11390 0.00000 -6.03719
										CHANNELS 3 Zrotation Xrotation Yrotation
										JOINT RightHandPinky2
										{
											OFFSET -4.52789 0.00000 0.00000
											CHANNELS 3 Zrotation Xrotation Yrotation
											JOINT RightHandPinky3
											{
												OFFSET -2.46976 0.00000 0.00000
												CHANNELS 3 Zrotation Xrotation Yrotation
												End site
												{
													OFFSET 0.00000 0.00000 0.00000
												}
											}
										}
									}
								}
							}
						}
					}
					JOINT LeftShoulder
					{
						OFFSET 0.01000 7.91373 5.19711
						CHANNELS 3 Zrotation Xrotation Yrotation
						JOINT LeftArm
						{
							OFFSET 18.41580 0.00000 0.00000
							CHANNELS 3 Zrotation Xrotation Yrotation
							JOINT LeftForeArm
							{
								OFFSET 29.11090 0.00000 0.00000
								CHANNELS 3 Zrotation Xrotation Yrotation
								JOINT LeftHand
								{
									OFFSET 24.65040 0.00000 0.00000
									CHANNELS 3 Zrotation Xrotation Yrotation
									JOINT LeftHandThumb1
									{
										OFFSET 5.35114 -0.85590 3.97906
										CHANNELS 3 Zrotation Xrotation Yrotation
										JOINT LeftHandThumb2
										{
											OFFSET 4.52789 0.00000 0.00000
											CHANNELS 3 Zrotation Xrotation Yrotation
											JOINT LeftHandThumb3
											{
												OFFSET 2.46977 0.00000 0.00000
												CHANNELS 3 Zrotation Xrotation Yrotation
												End site
												{
													OFFSET 0.00000 0.00000 0.00000
												}
											}
										}
									}
									JOINT LeftHandIndex1
									{
										OFFSET 14.26970 0.00000 2.88139
										CHANNELS 3 Zrotation Xrotation Yrotation
										JOINT LeftHandIndex2
										{
											OFFSET 5.48836 0.00000 0.00000
											CHANNELS 3 Zrotation Xrotation Yrotation
											JOINT LeftHandIndex3
											{
												OFFSET 3.01859 0.00000 0.00000
												CHANNELS 3 Zrotation Xrotation Yrotation
												End site
												{
													OFFSET 0.00000 0.00000 0.00000
												}
											}
										}
									}
									JOINT LeftHandMiddle1
									{
										OFFSET 14.26970 0.00000 -0.09147
										CHANNELS 3 Zrotation Xrotation Yrotation
										JOINT LeftHandMiddle2
										{
											OFFSET 6.17440 0.00000 0.00000
											CHANNELS 3 Zrotation Xrotation Yrotation
											JOINT LeftHandMiddle3
											{
												OFFSET 3.56744 0.00000 0.00000
												CHANNELS 3 Zrotation Xrotation Yrotation
												End site
												{
													OFFSET 0.00000 0.00000 0.00000
												}
											}
										}
									}
									JOINT LeftHandRing1
									{
										OFFSET 12.69180 0.00000 -3.06433
										CHANNELS 3 Zrotation Xrotation Yrotation
										JOINT LeftHandRing2
										{
											OFFSET 5.62556 0.00000 0.00000
											CHANNELS 3 Zrotation Xrotation Yrotation
											JOINT LeftHandRing3
											{
												OFFSET 3.56744 0.00000 0.00000
												CHANNELS 3 Zrotation Xrotation Yrotation
												End site
												{
													OFFSET 0.00000 0.00000 0.00000
												}
											}
										}
									}
									JOINT LeftHandPinky1
									{
										OFFSET 11.11390 0.00000 -6.03719
										CHANNELS 3 Zrotation Xrotation Yrotation
										JOINT LeftHandPinky2
										{
											OFFSET 4.52789 0.00000 0.00000
											CHANNELS 3 Zrotation Xrotation Yrotation
											JOINT LeftHandPinky3
											{
												OFFSET 2.46976 0.00000 0.00000
												CHANNELS 3 Zrotation Xrotation Yrotation
												End site
												{
													OFFSET 0.00000 0.00000 0.00000
												}
											}
										}
									}
								}
							}
						}
					}
					JOINT pCube4
					{
						OFFSET 0.00000 10.91090 1.10792
						CHANNELS 3 Zrotation Xrotation Yrotation
						End site
						{
							OFFSET 0.00000 0.00000 0.00000
						}
					}
				}
			}
		}
	}
	JOINT RightUpLeg
	{
		OFFSET -9.98441 0.00000 0.00000
		CHANNELS 3 Zrotation Xrotation Yrotation
		JOINT RightLeg
		{
			OFFSET 0.00000 -42.11790 0.00000
			CHANNELS 3 Zrotation Xrotation Yrotation
			JOINT RightFoot
			{
				OFFSET 0.00000 -45.00020 -0.00001
				CHANNELS 3 Zrotation Xrotation Yrotation
				JOINT RightForeFoot
				{
					OFFSET 0.00000 -3.74820 0.00000
					CHANNELS 3 Zrotation Xrotation Yrotation
					JOINT RightToeBase
					{
						OFFSET 0.00000 0.06325 14.43120
						CHANNELS 3 Zrotation Xrotation Yrotation
						End site
						{
							OFFSET 0.00000 0.00000 0.00000
						}
					}
				}
			}
		}
	}
	JOINT LeftUpLeg
	{
		OFFSET 9.98441 0.00000 0.00000
		CHANNELS 3 Zrotation Xrotation Yrotation
		JOINT LeftLeg
		{
			OFFSET 0.00000 -42.11800 0.00000
			CHANNELS 3 Zrotation Xrotation Yrotation
			JOINT LeftFoot
			{
				OFFSET 0.00000 -45.00070 0.00000
				CHANNELS 3 Zrotation Xrotation Yrotation
				JOINT LeftForeFoot
				{
					OFFSET 0.00000 -3.74824 0.00000
					CHANNELS 3 Zrotation Xrotation Yrotation
					JOINT LeftToeBase
					{
						OFFSET 0.00000 0.06325 14.43110
						CHANNELS 3 Zrotation Xrotation Yrotation
						End site
						{
							OFFSET 0.00000 0.00000 0.00000
						}
					}
				}
			}
		}
	}
}
MOTION
Frames: 4
Frame Time: 0.050000
0.035127023697288005 0.018063215069126178 0.04596865742393315 0.01662271202017591 -0.0350242866793467 -0.001134570101534984 -3.0628051770963896 6.552195405057529 -0.7243720813300966 -0.671548585027869 3.230906909208924 0.4005869644258032 -0.8803047947751087 -0.18112043104247888 -0.6336859405286414 -0.3261730569029705 0.17345133479915797 -0.8350004644987391 -0.09159757891868586 7.351488794485089 -0.6035888340263266 -0.03846358007401076 -1.9831949199066792 -4.589644197587508 0.3517874985793116 -16.949936200886047 -0.35276590923234247 4.272125884541711 -0.1269975802818603 -11.253650789363027 70.97561791065651 9.113998859854924 5.770649842686366 18.850276214064333 13.81199988590168 67.16565377090792 26.03253178540135 0.10865782084725832 -8.820414487110737 4.480859521192957 -0.13994856951790471 -1.6066140906493567 0.03275562433297685 0.0038865400718575017 -56.21932686297467 0.01985634949980048 -0.017964139693495196 -56.28265496818825 -38.808004588227156 -0.021113479598180128 0.008221661223593978 -0.03764369607700135 -0.027308663911406583 -0.03583837262687263 0.01415725145679058 0.020863585647011167 0.047834596595147515 -36.69692984122974 0.016989421838137276 -0.025326579939785442 -0.0038277345816667037 -0.002216370013184557 0.002671401226254369 -0.04185825878845784 0.035324043706600645 0.011021924053815123 -19.78477315593383 -0.014902728100869338 -0.028275306231091684 0.045596709523937524 -0.0426100916309697 0.02581968150376852 0.019835224580435126 -0.036866723443006254 -0.011539508516291326 24.062796585806314 0.011879955888425218 -0.03167210403266769 28.87651527155858 -0.023776092336928036 -0.007466179478441541 28.838361008799275 -0.03206319317241822 0.021573711223349546 -3.2210854409576766 0.03494608656719885 10.052868612526503 -68.82921451794026 18.683744687150853 -7.797977853008209 -9.484977038650188 9.719816651192636 -49.094766180733515 -17.880952343921823 5.734742996968285 -1.50346076656597 -0.492082853480359 0.10529921502853232 -8.158146867238276 -0.03395502358769846 -0.028520168396129825 44.57714138603531 0.011726447558048787 -0.004048078533034631 44.534032885800436 12.434963300585899 -0.023648696888213163 0.03893622075051213 0.021297409094796785 0.01561770439667847 0.03882304612949964 0.03422098391539503 0.0064307891242897175 -0.04779776247786748 11.128264753709802 0.008411250984481559 0.016926006737063907 0.014858192330608533 0.0021989652366310735 0.00036516167590560825 0.004767935736808978 0.04165833146755694 -0.024985578880662464 4.732831672386529 -0.0028357506785366155 -0.0019041087343799517 -0.019166342530071115 0.000932756077239556 -0.020351427080462482 0.00043993571667943094 0.020514506586634486 -0.016678044725385654 -5.581121984187246 0.006349535214377211 0.02518581901189708 -6.714624976774544 0.02147053970621177 0.01149598062289398 -6.765228204195184 0.04635976080141176 -0.0032341115423328674 0.0020668023833348573 -0.020154957460897422 0.0011720111240109076 8.008169522650705 3.529260296720123 -19.246535607573495 0.046239674095682796 10.373225335979047 -0.003851306339884966 -5.603116228223042 -15.617646691760392 3.237353815071854 -0.004873238315604354 -0.049774040069142385 0.022692567329536905 -0.0361904019864711 4.652537626792397 -0.039938511633344484 12.506874820626907 -8.191117383278277 6.872391469613702 0.027840029685531203 46.35083908457197 -0.031915640094931155 -4.299793435328022 -14.774903951008028 -3.8557197877525815 0.028688770087470918 0.0028864840580710245 -0.02844153794305201 -0.04849844483459095 -10.746489083721292 -0.006893197971818746 
0.0069981485422616774 -0.01599453663798224 -0.0012536606869854765 -0.030660745246937984 -0.033997535457422914 0.028447570989203398 -2.161441123527696 5.693291816370985 -0.8871175624380664 -0.695401497680342 3.301388148735552 0.33562641341764243 -0.8156629910738474 -0.35910506947484727 -0.40621487035476467 -0.3115960524542775 0.16972401124259115 -0.7306865827559653 -0.0150120152906978 8.396443774228304 -0.6914186628533866 0.03914051957451469 -1.9573103550792141 -4.611074449931248 0.38523230284568327 -17.318748989620502 -0.3990527323888875 2.1469690105070884 0.43977355768960735 -11.83524142883203 72.62593419353426 10.194606378118094 8.387378010781289 29.826599938621264 11.448220360119759 75.96527771703289 23.397134352055225 0.0506838855614741 -9.137953097473915 4.482989237516489 -0.16352159392872184 -1.6382852897311084 0.004720294928616459 -0.034453068573582796 -56.22778858453233 0.02335896136102382 0.008056151403057831 -56.257202364711645 -38.80842039878339 -0.004145814553372619 -0.009367079549072073 -0.016575575728676094 -0.03159904773027021 -0.04930339508694526 -0.0059391938385728715 0.022736408879475135 0.038818719154574605 -36.72192232990031 0.012043663447261451 -0.0029272536968797873 0.02405347907705404 -0.0037151606165776426 -0.020732062161484873 -0.0013708970449850403 0.01659977680498801 -0.029329394635380174 -19.72664019665417 0.013008003877102782 0.030689211224476282 0.016824349316778026 -0.04881019576139734 0.025912019093802308 0.0018087318944096447 -0.04325940541444893 -0.027607651087948947 24.028206742142217 0.025501623476503914 3.886801317768485e-05 28.874761191746643 -0.028863699620260055 -0.027801232272390324 28.902687215700315 0.031989099346373874 -0.016838557153092477 -1.1267737739411403 0.38318926079881444 10.461144332409358 -70.15975786827048 19.773517168241884 -8.95925931071566 -15.037985719611877 9.423478220753108 -52.93032523163758 -16.37428498718057 4.458147842911032 -0.5943861757877091 -0.513238944551251 0.07175581833891656 -8.166320936287478 0.0019037343682397213 0.022993526071368477 44.55844247688266 -0.04905086473790026 0.044927777218409425 44.59655307826075 12.458443616028942 0.01619921486215493 0.0034871418108666135 -0.022988415670670136 -0.02484288357874904 -0.013435855189996179 -0.043875636124731526 0.0008215444446815673 0.02391125038868078 11.133350148895339 0.02659635822643438 -0.0017357573693011527 0.020490763443854986 -0.02646328968379858 -0.006857501741703311 0.01960690876764738 -0.0479709539606263 0.002960620179615956 4.78959342181212 -0.01722653881067124 -0.009512616940330098 -0.026905736872562865 0.0017122944813845568 0.004585792918303141 -0.006229175700433718 -0.021801055149460284 0.0242828782578294 -5.5944711311696995 0.02302475397770736 0.04149438933957913 -6.683573893200977 0.014847998268492908 0.023604094472758342 -6.730901539225619 0.024392395161389514 -0.023668249719803837 0.0455349875541633 -0.0058941563499450835 0.0021110483370430978 8.012223991472577 3.5235301595372293 -19.237083932579008 -0.01890861158576253 10.386070956862559 -0.01897883938275838 -5.608738395021558 -15.666028410124795 3.211701050045433 0.029955329873634647 0.04375400622354285 -0.03275949432124711 -0.03266464907379099 4.723171494734905 0.017685774579928933 12.469374199873641 -8.26598849330556 6.9075834779134855 -0.020158391063390103 46.37822432084574 0.014807850775968462 -4.362573828157841 -14.73861422275304 -3.8668192540255006 0.0444421165281771 0.006275704596491858 -0.016784759038329104 -0.034757623120052934 -10.766162432667592 -0.012794301088339594 
0.026872458927714355 -0.0018557415026617128 0.04487198868843775 0.011492147486109786 0.04013012226692337 0.03180201107499623 -1.322878976465294 4.9200717990333995 -1.0471849658049766 -0.6440985473150219 3.3891454278410076 0.33492675148309836 -0.8148991816371389 -0.6373278112156247 -0.2484361711019691 -0.22462923708718135 0.12243599445843574 -0.7365039050381307 -0.03334791047440401 9.170133835177422 -0.837801835319097 0.09644840984917344 -1.7525059203131945 -4.4316047269619485 0.4583795522275539 -17.375490503404404 -0.3505402265404853 0.01932906384479373 0.9622533737139346 -12.274962171352099 74.42739725699717 11.02041822865246 10.612259232567649 38.18438300241753 8.157068826694013 82.57432256020343 21.03177648791868 -0.07956463687656642 -9.116872608531388 4.514768893829689 -0.10592457199400068 -1.5803909344786817 -0.049709712448603435 0.003229869488798395 -56.18459952648756 -0.045756565271927785 0.019047361960183706 -56.20294734089958 -38.74759770357166 0.012517658777380695 -0.029051301049201818 -0.025318972701807524 -0.005100190324172158 0.03312135683999379 0.0111168286036398 0.00018999837146424205 0.009358111161301618 -36.70881414857851 -0.04313687539068912 0.04652565768456104 0.012499863394570631 -0.01114131092503296 0.019545293339715428 0.007834036782532706 0.03951006434602152 -0.0037447472222006937 -19.779925310528554 -0.0222147720132825 -0.004604964072320769 0.017896543068780673 -0.04926334437303454 0.009894316981577207 -0.031095653791654517 0.025472292788828847 -0.042219021500316214 24.051778067362243 -0.002616468682717499 0.015888795203919944 28.843651114893042 0.021048992400935385 0.014760903134951452 28.85010198144743 -0.048024129765587724 0.022133465332083803 0.8819724469389703 0.7175821407617868 10.787661837967619 -71.41509145181448 20.731525834825273 -10.06194973871974 -19.662655784115454 8.263627326559282 -56.1506871927787 -15.113819283895799 2.9850346868895627 0.3460874367230311 -0.4664316013294054 0.06707186334402199 -8.120604396438281 0.0014390097299776256 0.045252730264740935 44.55544167858488 0.008229464611591616 -0.03157335924736107 44.56950703772494 12.451032179714483 -0.02073876923645975 -0.04325022535669461 0.04885150717453549 -0.04986828189400397 0.032927256545155874 -0.045222601427911874 0.019662404690994582 0.02483083825092982 11.146376368337608 0.03886283554094903 0.009437914440897149 -0.015938456499613674 0.04915263516630974 -0.027564664217609846 -0.013605672137793554 -0.028549031252340276 0.01924267326121493 4.815218228486569 0.039845856027350905 -0.003955086062253159 -0.0019229278387843866 -0.024997229552536717 0.024395593644949167 -0.03840224760478954 -0.04801366857019107 0.048661583990758074 -5.5782761623609805 0.04062980059260207 0.03413068986487072 -6.722782006350815 -0.0038540656859394388 -0.02484263855865299 -6.729454849749523 -0.020256781711968354 -0.009635695572821118 -0.02184714866745449 -0.003247942961026527 0.02269846420003484 8.00485599749833 3.4781192135231933 -19.179429115040328 0.009143627091927786 10.422148566012307 -0.00532587586163848 -5.640657419419635 -15.624962946395357 3.241821759613648 -0.01265529536193304 -0.004381949409768179 -0.03339042879634909 -0.026724972927754366 4.654314218058692 -0.011797655400618568 12.482997691882701 -8.286699614682506 6.916748390109363 -0.037543595233165535 46.38443163753545 0.0460902381318286 -4.319916538181633 -14.767540976840477 -3.843921724251715 0.014127088386451969 -0.010681846007928618 -0.025760764034028553 -0.004291490818254175 -10.725553138319812 -0.037731311994991884 
0.04648454433505985 -0.02679494876131604 -0.02978747382900856 -0.043280022418300285 -0.03803291028339537 0.020261035340754394 -0.4639140859653686 4.248288762910046 -1.196776836291448 -0.7502113856640852 3.380340266807731 0.3423313891273806 -0.7774294547211592 -0.7499656264852887 -0.1255756688948333 -0.25028961968607166 0.028670190204240248 -0.6555117134800497 -0.03729775910493307 9.717837096964555 -0.9208291935916344 0.05133180166883494 -1.5622225363346558 -4.3742568346398745 0.5722414718919411 -17.326850702688436 -0.3796415582262384 -1.6445327041807962 1.4456376297233362 -12.737058394274726 76.04236664270066 10.995084336314756 12.105072919057914 42.830092789187795 5.704566293446543 85.97212737090125 19.338870099236328 -0.17205598658819132 -8.764834853787713 4.530822263707902 -0.16503360562207225 -1.5843674242632781 0.02135431173044367 -0.0022457744600973186 -56.27297843273461 -0.016174202603245386 -0.013034319498486017 -56.25630749303786 -38.77807802175183 -0.011872519195034887 0.01942237161719614 0.027749905981650794 0.03620031251538049 0.003567480329523649 0.018828347721547366 -0.022641910311300476 0.029317802537880855 -36.727493259239 -0.004965655589221229 -0.02226380648876938 0.0037252480425771627 0.004207219981673285 0.011094711452023722 -0.015530537718806884 -0.04544325567387656 -0.004803705065827875 -19.728428410872954 -0.021570162767278012 -0.01485348261036983 0.011823989966635754 -0.011755604594714857 -0.02830807941063372 0.03317643759364358 -0.001189293641055821 0.038408275321172705 24.046545596131853 -0.01524741367070164 0.031993730516018365 28.838746608022692 0.006291428296261637 0.00325857489966573 28.903406910200477 0.018447165855862296 0.033609727276398264 2.4571435204599363 1.0900273665282398 11.177620989885055 -72.47710195793213 21.12072244021046 -10.700218617108407 -21.552085084599106 6.360090702903033 -57.3994794512797 -14.732099262047178 1.480422875251345 1.1619524675428365 -0.48677527932292497 0.05823434691027172 -8.088801382155513 -0.022694549820599905 -0.02419663634348546 44.56685051202155 0.02469624999049637 0.027240552113964877 44.60042054499161 12.449633595945933 0.030968585349049487 -0.017486893001039144 0.04018744032179728 -0.04101259378046078 0.04723008857942424 -0.025325683666565305 -0.03612797408360998 0.032596525129051 11.061776521480104 0.007276431916387083 0.03752654752333415 -0.0300014168844299 0.04317271540861681 -0.0180370192861861 -0.019930447386071498 -0.029893094092309305 0.0015104629009645469 4.791915735508342 0.017397562816943952 -0.036135597926321046 -0.0054608247693471 0.0041337546507794875 0.027954197301027828 0.0008279136620903601 -0.0017149838603512451 0.015645944565010696 -5.613663080860642 0.006313442170265635 0.020647160956300464 -6.757373450829902 0.01783191128086724 -0.022497647043914232 -6.717136044335765 -0.039416465807744494 0.037554350658242516 0.04512083053503967 -0.0053376146437203046 -0.011450237179576937 8.063628745486508 3.488804034654499 -19.256035989760974 -0.008971093061856382 10.37601000838189 0.0562287338002513 -5.585914561230566 -15.648932398617093 3.2317274085785823 0.013403575340975197 -0.005599045929346974 0.03559403314946383 -0.019204785240572557 4.685974498782522 0.03011977238578415 12.444855002990035 -8.212907484479613 6.871070891386328 -0.024743365499186716 46.40711195167239 0.04800128545369823 -4.350041781614368 -14.72571684251671 -3.864880164518268 0.03556267775462093 -0.016173471789231272 -0.00479760664738559 -0.0015920726711609631 -10.702543965089783 -0.02318989089221829 
